<svg version="1.1" id="Layer_1" xmlns="http://www.w3.org/2000/svg" xmlns:xlink="http://www.w3.org/1999/xlink" x="0px" y="0px"
	 width="100%" viewBox="0 0 500 500" enable-background="new 0 0 500 500" xml:space="preserve">
<path fill="#161616" opacity="1.000000" stroke="none" 
	d="
M225.000000,501.000000 
	C150.000015,501.000000 75.500038,501.000000 1.000040,501.000000 
	C1.000027,334.333405 1.000027,167.666779 1.000013,1.000129 
	C167.666565,1.000086 334.333130,1.000086 500.999756,1.000043 
	C500.999847,167.666534 500.999847,334.333069 500.999939,500.999817 
	C409.166656,501.000000 317.333344,501.000000 225.000000,501.000000 
M304.741943,321.647675 
	C306.511322,317.178589 308.397614,312.750244 309.977112,308.215027 
	C310.436035,306.897339 310.017365,305.274017 310.518127,303.137695 
	C314.159729,298.325256 317.537384,293.279053 321.526642,288.774536 
	C324.702148,285.188843 324.823090,281.038025 324.011841,277.166840 
	C323.461060,274.538513 320.854828,272.192474 318.734955,270.174988 
	C318.342438,269.801453 315.231659,271.205963 314.483246,272.454102 
	C308.072144,283.146057 301.556763,293.805511 295.845093,304.873352 
	C293.235077,309.930969 291.818970,315.790436 290.843231,321.455322 
	C289.789520,327.572815 294.532410,332.727478 300.896698,333.807495 
	C301.988281,329.858643 303.073547,325.932648 304.741943,321.647675 
M130.195587,315.259735 
	C131.092270,314.810120 131.988968,314.360504 132.905533,313.900909 
	C135.353653,319.356415 138.540009,323.917023 143.689606,324.897064 
	C142.255219,319.078949 140.767242,313.043396 139.823593,306.977386 
	C140.509491,306.774445 141.195389,306.571503 142.318375,305.807007 
	C145.000031,301.945953 147.681686,298.084869 150.476227,294.061279 
	C155.996017,296.955505 160.632553,295.303467 162.887299,288.155029 
	C166.254822,277.478577 162.413071,270.746765 155.067688,267.941895 
	C157.257996,260.360596 160.712616,257.747284 168.066925,258.354645 
	C181.675995,259.478638 195.271957,260.772034 208.890686,261.755219 
	C210.579788,261.877167 213.491760,260.962677 213.928986,259.806732 
	C215.966324,254.420502 217.333130,248.780624 218.920547,243.297806 
	C202.434830,236.349701 197.710175,233.462601 190.745941,224.484924 
	C185.549118,217.785614 180.902374,210.658234 176.044968,203.697540 
	C173.613434,200.213120 171.258545,196.675217 168.357773,192.409775 
	C165.037888,196.462952 162.219376,199.904022 159.400864,203.345093 
	C158.864090,202.838089 158.327301,202.331100 157.790512,201.824112 
	C159.957870,199.050980 162.047333,196.212067 164.316513,193.524902 
	C166.236160,191.251648 166.582748,189.256561 164.150299,187.116837 
	C158.423203,182.078918 153.184784,176.339279 146.926483,172.096252 
	C141.616241,168.496017 135.154495,166.594177 129.033020,163.865356 
	C124.893166,178.970490 120.258324,184.431427 111.255104,184.578827 
	C98.276474,184.791260 94.368767,175.547653 92.293884,164.644211 
	C80.716927,166.985886 70.857529,171.907959 63.396858,180.219772 
	C55.872963,188.602005 49.122566,197.761841 42.738029,207.064667 
	C32.194775,222.427124 22.062595,238.005463 1.904892,242.744354 
	C3.425203,248.172562 5.005985,253.058975 6.119231,258.049683 
	C6.901500,261.556580 8.561090,262.375092 12.054270,262.029022 
	C25.641113,260.682953 39.340721,260.231995 52.836720,258.311768 
	C59.879265,257.309784 64.126320,261.866486 65.839951,268.299927 
	C64.969971,268.620880 64.044472,268.877777 63.193962,269.289612 
	C57.286556,272.149780 54.988079,281.599243 58.312767,289.257385 
	C60.982281,295.406433 64.207993,296.445618 72.175148,293.514771 
	C70.891342,300.089844 76.395111,302.794434 80.091003,306.941650 
	C80.639465,307.036377 81.187927,307.131134 81.830933,308.095612 
	C80.312492,313.688629 78.794052,319.281647 77.296425,324.797974 
	C82.017525,324.087830 84.816574,319.909851 88.022835,315.997406 
	C88.221016,316.155212 88.419197,316.313049 88.806267,316.222656 
	C89.873116,315.129547 90.939957,314.036407 92.708267,313.475281 
	C92.334869,315.621490 90.863602,318.688660 91.766121,319.764587 
	C97.651337,326.780518 104.051369,333.364655 110.479202,340.301727 
	C116.863663,333.445068 122.805916,327.230438 128.498169,320.794708 
	C129.513123,319.647186 129.491348,317.582672 130.195587,315.259735 
M484.062073,306.712006 
	C484.067749,305.096466 484.073456,303.480927 484.381134,301.240631 
	C484.919250,300.875946 485.739746,300.628479 485.948029,300.126831 
	C487.010529,297.567474 486.568329,294.463959 490.414795,293.175110 
	C492.067902,292.621216 493.466583,289.342743 493.728943,287.152222 
	C493.994843,284.931976 492.136749,282.502472 492.232666,280.207428 
	C492.436371,275.333313 489.544434,273.662415 485.449799,272.177979 
	C482.841522,278.630646 481.140991,285.185516 477.028107,290.678589 
	C472.763184,296.374664 469.342712,302.769226 464.658081,308.067017 
	C459.542114,313.852600 452.546509,316.545898 443.171448,316.285004 
	C445.683960,310.103699 447.935913,304.563354 450.419952,298.452118 
	C450.803314,298.049805 452.007080,297.187134 452.661011,296.017151 
	C454.035675,293.557648 454.679626,290.575653 456.413452,288.453491 
	C460.718872,283.183838 459.422546,278.326935 456.024597,273.494385 
	C455.065216,272.129883 453.448029,270.208954 452.264679,270.298065 
	C450.999542,270.393341 449.456879,272.366211 448.782837,273.857391 
	C443.854156,284.761017 438.897278,295.662689 434.437775,306.761292 
	C432.995697,310.350342 432.676697,314.506592 432.444336,318.438843 
	C432.088226,324.465088 438.245239,331.046112 445.908997,331.395752 
	C460.498383,332.061340 470.909271,324.103699 479.936310,312.849152 
	C480.551666,311.889526 481.167023,310.929901 482.230835,309.474274 
	C482.690094,308.714752 483.149353,307.955200 484.062073,306.712006 
M380.902893,195.778931 
	C378.046997,199.337265 375.191071,202.895584 372.081970,206.769379 
	C371.525269,204.434586 370.895264,202.525253 370.634674,200.566772 
	C369.717834,193.675537 365.112305,189.778580 359.441467,186.905960 
	C358.357391,186.356812 356.076477,186.567688 355.246735,187.364288 
	C345.827667,196.407562 337.596375,206.339005 332.214966,218.439941 
	C329.828979,223.805313 329.976257,228.792740 333.149536,233.567795 
	C334.128265,235.040527 335.985443,236.821686 337.445984,236.826645 
	C338.856415,236.831436 340.873718,235.012512 341.588715,233.503876 
	C345.494476,225.262772 348.845032,216.753235 352.897278,208.589539 
	C354.441437,205.478699 357.343689,203.041977 359.626984,200.298019 
	C360.135864,200.602966 360.644775,200.907913 361.153656,201.212860 
	C361.307037,203.139267 361.491547,205.063797 361.608398,206.992416 
	C362.088654,214.917160 362.291504,222.870132 363.119995,230.757721 
	C363.558258,234.930054 366.000031,237.749237 370.915833,237.213547 
	C372.148743,237.079193 373.459320,237.657639 374.903198,237.941742 
	C378.420013,229.599106 381.700043,221.264832 385.447021,213.146088 
	C387.551605,208.585999 389.801880,203.819595 393.101105,200.147614 
	C398.241882,194.426056 404.330780,189.556366 410.012543,184.330597 
	C404.794678,179.160294 399.207703,178.341919 392.448883,181.819717 
	C391.681793,181.799347 390.465302,181.458038 390.215881,181.807327 
	C387.093323,186.180313 384.110779,190.653275 380.902893,195.778931 
M393.116089,281.444946 
	C392.480011,281.580811 391.326324,281.929718 391.282013,281.822021 
	C388.864838,275.948730 386.167572,274.177490 380.130188,274.992981 
	C376.508881,275.482086 372.885010,276.123688 369.351715,277.041199 
	C366.248901,277.846924 364.562225,277.038330 363.152191,274.064056 
	C360.563538,268.603699 357.348694,268.401794 354.575989,273.794403 
	C351.703827,279.380463 347.317780,281.183960 341.554871,281.110535 
	C338.391479,281.070221 335.214661,281.292358 332.066315,281.073578 
	C328.702972,280.839813 326.471191,281.347626 326.919586,285.520172 
	C327.508362,290.999115 329.841766,293.897339 333.491394,293.543732 
	C337.006989,293.203156 340.545258,293.097137 344.719818,292.849762 
	C342.101471,299.517914 339.946014,305.252563 337.599670,310.908051 
	C335.586365,315.760773 334.385895,320.550415 335.806732,325.888794 
	C336.963196,330.233887 338.869141,332.815582 344.346802,331.557922 
	C345.645813,326.565460 346.995270,321.379120 348.344727,316.192810 
	C348.870026,314.200439 349.674316,312.260559 350.374329,310.283752 
	C350.742950,309.242859 350.717010,308.017944 351.241486,307.085541 
	C352.415497,304.998413 353.822205,303.042145 355.134979,301.033142 
	C357.482758,297.440155 357.326080,291.780823 362.868011,290.815948 
	C371.068726,289.388153 379.327271,288.292725 387.713898,287.032867 
	C388.278076,290.111725 388.629486,292.563293 389.189423,294.966278 
	C390.143433,299.060516 391.454773,302.329315 396.201965,304.263977 
	C399.993103,305.808990 402.738434,309.920074 405.961243,312.904480 
	C397.453857,321.629761 387.894592,323.166595 379.873718,316.994843 
	C378.965271,318.777679 377.364532,320.449799 377.419800,322.065186 
	C377.658600,329.042023 387.493530,337.707764 394.171936,334.629486 
	C396.762421,333.435455 399.099060,330.438324 401.552399,330.437134 
	C408.517517,330.433777 412.774811,326.134308 417.412140,322.213379 
	C422.573669,317.849152 421.434296,308.181000 415.550323,304.608917 
	C410.375031,301.467102 405.359833,298.061554 400.155609,294.695923 
	C405.596527,288.950378 414.162659,285.328247 420.310913,285.863434 
	C421.042664,285.927124 421.846283,286.173615 422.442627,286.586639 
	C423.945038,287.627228 425.348053,288.811340 426.924713,290.042419 
	C431.832153,278.660461 428.058655,273.135712 416.525909,273.406250 
	C408.151459,273.602692 400.495117,276.091980 393.116089,281.444946 
M284.099731,208.569412 
	C280.707001,214.079330 276.851593,219.364120 274.034424,225.154099 
	C270.196960,233.040894 274.032501,239.649063 283.557312,241.492523 
	C285.968414,227.545242 296.794006,223.741623 310.127106,220.336533 
	C309.156219,224.648270 308.711029,227.629639 307.803375,230.462830 
	C305.340240,238.151138 307.513977,241.833496 315.784119,242.647293 
	C316.694672,237.182281 317.579376,231.667511 318.540985,226.166168 
	C319.310181,221.765274 319.219177,216.746246 326.814392,216.258179 
	C320.515411,209.362808 323.819397,202.605087 324.502289,195.798691 
	C324.938171,191.454147 324.425934,186.798721 323.292542,182.562592 
	C321.553070,176.061203 313.989166,174.096710 309.197235,179.247803 
	C300.603027,188.486130 292.722473,198.388321 284.099731,208.569412 
M273.687561,283.290802 
	C265.520538,286.994080 257.353485,290.697357 249.186447,294.400665 
	C250.132523,290.593811 251.671738,287.677643 253.471283,284.932098 
	C256.405151,280.455963 255.178818,276.292297 252.566772,272.367096 
	C250.375122,269.073669 248.193970,269.186859 246.168793,272.450531 
	C244.151459,275.701508 242.170212,278.980347 240.315796,282.326050 
	C233.166397,295.224945 225.200348,307.724426 221.432480,322.248596 
	C219.859970,328.310150 222.184875,332.917389 228.875854,334.878723 
	C230.178818,330.178589 232.376556,325.493683 232.532578,320.741760 
	C232.677734,316.320221 235.808594,314.990082 238.088608,312.843567 
	C238.785324,312.187622 241.629974,313.229919 243.132278,314.108093 
	C252.562866,319.620422 261.818604,325.433685 271.281372,330.888580 
	C277.353333,334.388855 281.748169,334.623108 285.415802,332.641327 
	C271.971191,327.203796 261.632812,317.366241 251.407593,306.887115 
	C252.386398,306.287628 252.774673,305.983917 253.212036,305.792236 
	C257.018036,304.124054 260.777191,302.326080 264.667511,300.882690 
	C266.736023,300.115204 269.269135,300.426971 271.181000,299.447968 
	C274.617859,297.688019 277.514526,294.750458 281.048706,293.328491 
	C288.575226,290.300323 289.603485,288.796906 288.148895,281.323273 
	C287.515228,278.067474 285.956482,277.464172 283.286255,278.596893 
	C280.229645,279.893494 277.249054,281.369293 273.687561,283.290802 
M436.524231,179.248093 
	C432.248962,173.491562 430.624512,173.615906 426.824158,179.887833 
	C423.720337,185.010330 420.178802,189.905304 417.492096,195.234283 
	C413.092529,203.960800 408.561218,212.722794 405.330780,221.907791 
	C402.190948,230.835068 404.701172,234.845612 414.798828,239.724167 
	C415.552582,235.944122 415.972107,232.123474 417.105530,228.527878 
	C419.210541,221.850143 421.072998,214.960861 424.275391,208.804062 
	C427.175018,203.229233 431.643982,198.449036 435.573364,193.437988 
	C438.928650,189.159134 438.663269,184.633224 436.524231,179.248093 
z"/>
<path fill="#F42C2C" opacity="1.000000" stroke="none" 
	d="
M79.545990,306.862915 
	C76.395111,302.794434 70.891342,300.089844 72.175148,293.514771 
	C64.207993,296.445618 60.982281,295.406433 58.312767,289.257385 
	C54.988079,281.599243 57.286556,272.149780 63.193962,269.289612 
	C64.044472,268.877777 64.969971,268.620880 65.839951,268.299927 
	C64.126320,261.866486 59.879265,257.309784 52.836720,258.311768 
	C39.340721,260.231995 25.641113,260.682953 12.054270,262.029022 
	C8.561090,262.375092 6.901500,261.556580 6.119231,258.049683 
	C5.005985,253.058975 3.425203,248.172562 1.904892,242.744354 
	C22.062595,238.005463 32.194775,222.427124 42.738029,207.064667 
	C49.122566,197.761841 55.872963,188.602005 63.396858,180.219772 
	C70.857529,171.907959 80.716927,166.985886 92.293884,164.644211 
	C94.368767,175.547653 98.276474,184.791260 111.255104,184.578827 
	C120.258324,184.431427 124.893166,178.970490 129.033020,163.865356 
	C135.154495,166.594177 141.616241,168.496017 146.926483,172.096252 
	C153.184784,176.339279 158.423203,182.078918 164.150299,187.116837 
	C166.582748,189.256561 166.236160,191.251648 164.316513,193.524902 
	C162.047333,196.212067 159.957870,199.050980 157.790512,201.824112 
	C158.327301,202.331100 158.864090,202.838089 159.400864,203.345093 
	C162.219376,199.904022 165.037888,196.462952 168.357773,192.409775 
	C171.258545,196.675217 173.613434,200.213120 176.044968,203.697540 
	C180.902374,210.658234 185.549118,217.785614 190.745941,224.484924 
	C197.710175,233.462601 202.434830,236.349701 218.920547,243.297806 
	C217.333130,248.780624 215.966324,254.420502 213.928986,259.806732 
	C213.491760,260.962677 210.579788,261.877167 208.890686,261.755219 
	C195.271957,260.772034 181.675995,259.478638 168.066925,258.354645 
	C160.712616,257.747284 157.257996,260.360596 155.067688,267.941895 
	C162.413071,270.746765 166.254822,277.478577 162.887299,288.155029 
	C160.632553,295.303467 155.996017,296.955505 150.476227,294.061279 
	C147.681686,298.084869 145.000031,301.945953 141.835587,305.770782 
	C142.343765,296.757416 143.400986,287.786560 144.258820,278.796722 
	C144.397583,277.342499 143.650330,275.803680 143.021881,273.012817 
	C148.424973,265.265625 148.541946,258.755005 142.248871,256.472565 
	C141.676147,262.258972 140.059448,267.391663 133.454086,268.769226 
	C128.183151,269.868530 120.960175,266.688202 118.145309,261.484894 
	C116.357208,258.179596 115.709213,254.275558 114.140678,250.826096 
	C113.298927,248.974945 111.905060,247.000290 110.217178,245.979004 
	C105.253036,242.975281 99.819611,240.728622 94.944397,237.601715 
	C90.207535,234.563507 86.227295,237.369034 82.222252,238.712616 
	C80.940811,239.142517 80.494240,242.328705 79.845367,244.312561 
	C78.917694,247.148834 78.587303,250.262665 77.241264,252.864502 
	C73.188919,260.697479 72.950562,268.007599 79.051697,274.926056 
	C79.032913,274.954163 78.993378,275.008972 78.591331,275.042175 
	C77.621300,276.355408 76.409966,277.733124 76.587158,278.899963 
	C77.996544,288.180908 81.234543,297.250427 79.545990,306.862915 
M121.202812,215.591187 
	C123.579590,217.722305 125.848854,219.995544 128.385895,221.914810 
	C129.405090,222.685837 131.835129,223.358078 132.206619,222.907501 
	C133.665100,221.138519 134.823120,218.983154 135.479874,216.787918 
	C135.646973,216.229355 133.687592,214.476425 132.478195,214.170792 
	C129.095428,213.315903 125.593826,212.931168 122.080040,211.349960 
	C121.967239,210.000076 121.854446,208.650177 121.829819,206.530121 
	C122.210808,201.819778 121.840431,197.262878 116.779427,195.171402 
	C109.839302,192.303375 102.668198,194.940430 98.465698,200.760971 
	C96.576881,198.828598 94.847610,196.690720 92.733093,195.049057 
	C91.647804,194.206467 88.944191,193.539520 88.577919,194.019272 
	C87.197113,195.827927 86.214836,198.078491 85.690491,200.306473 
	C85.559532,200.862930 87.607971,202.484299 88.813896,202.692001 
	C91.583725,203.169022 94.451553,203.077042 97.783577,203.240799 
	C97.963112,202.935364 98.523933,201.981277 99.206345,201.992111 
	C99.527412,206.078766 99.848480,210.165405 99.552475,213.928543 
	C98.932167,213.497070 98.265518,212.642334 97.699226,212.704330 
	C94.536835,213.050476 91.355362,213.443314 88.275917,214.205872 
	C87.203789,214.471375 85.538078,215.969345 85.645309,216.676804 
	C85.948303,218.675690 86.765373,220.742844 87.930374,222.394882 
	C88.414719,223.081680 90.832413,223.384155 91.450844,222.831604 
	C94.488350,220.117584 97.216553,217.057343 100.835838,214.032822 
	C107.229279,216.197205 113.627617,216.566162 120.288170,214.409485 
	C120.470024,214.616898 120.671143,214.803543 121.202812,215.591187 
M105.671234,240.862701 
	C117.445457,246.605988 129.666061,250.964218 142.962082,253.499969 
	C142.214355,249.401794 141.188629,246.035950 141.105515,242.646973 
	C141.032288,239.661652 139.792831,238.272659 137.190170,237.987244 
	C126.339798,236.797379 115.482704,235.656021 104.611969,234.675430 
	C102.361603,234.472443 100.042412,235.032364 97.754944,235.240662 
	C97.738892,235.628448 97.722832,236.016251 97.706779,236.404037 
	C100.139679,237.780777 102.572578,239.157516 105.671234,240.862701 
M62.756264,273.477753 
	C58.800507,278.127808 57.816132,283.597076 60.993053,288.078583 
	C62.245922,289.845947 65.276527,291.503296 67.316116,291.308655 
	C70.887794,290.967804 72.892517,285.109528 71.923248,279.897797 
	C71.138931,275.680634 67.489853,272.781921 62.756264,273.477753 
M154.926590,272.697723 
	C154.089951,273.483002 153.288406,274.310150 152.410583,275.046295 
	C148.576340,278.261719 147.547058,284.656677 150.386505,288.825958 
	C152.279404,291.605377 155.359253,293.571625 157.744980,290.502472 
	C159.873627,287.764099 161.044708,283.771027 161.302948,280.234100 
	C161.556046,276.767487 159.926712,273.329681 154.926590,272.697723 
M127.948730,202.320358 
	C135.762146,202.673157 136.761383,201.805862 134.121155,196.771774 
	C133.459961,195.511093 132.132050,193.721039 131.139816,193.739594 
	C129.948273,193.761871 128.767181,195.434494 127.620216,196.436752 
	C126.527039,197.392029 125.303947,198.274429 124.470039,199.428757 
	C123.676491,200.527206 123.312218,201.935760 122.255524,204.366669 
	C124.867271,203.454758 126.059204,203.038589 127.948730,202.320358 
M156.537399,203.832733 
	C156.634445,203.595886 156.731476,203.359039 156.828522,203.122192 
	C156.551743,203.063293 156.274948,203.004379 155.998169,202.945480 
	C155.951614,203.265961 155.905075,203.586456 156.537399,203.832733 
z"/>
<path fill="#947FE3" opacity="1.000000" stroke="none" 
	d="
M393.400757,281.243225 
	C400.495117,276.091980 408.151459,273.602692 416.525909,273.406250 
	C428.058655,273.135712 431.832153,278.660461 426.924713,290.042419 
	C425.348053,288.811340 423.945038,287.627228 422.442627,286.586639 
	C421.846283,286.173615 421.042664,285.927124 420.310913,285.863434 
	C414.162659,285.328247 405.596527,288.950378 400.155609,294.695923 
	C405.359833,298.061554 410.375031,301.467102 415.550323,304.608917 
	C421.434296,308.181000 422.573669,317.849152 417.412140,322.213379 
	C412.774811,326.134308 408.517517,330.433777 401.552399,330.437134 
	C399.099060,330.438324 396.762421,333.435455 394.171936,334.629486 
	C387.493530,337.707764 377.658600,329.042023 377.419800,322.065186 
	C377.364532,320.449799 378.965271,318.777679 379.873718,316.994843 
	C387.894592,323.166595 397.453857,321.629761 405.961243,312.904480 
	C402.738434,309.920074 399.993103,305.808990 396.201965,304.263977 
	C391.454773,302.329315 390.143433,299.060516 389.189423,294.966278 
	C388.629486,292.563293 388.278076,290.111725 387.713898,287.032867 
	C379.327271,288.292725 371.068726,289.388153 362.868011,290.815948 
	C357.326080,291.780823 357.482758,297.440155 355.134979,301.033142 
	C353.822205,303.042145 352.415497,304.998413 351.241486,307.085541 
	C350.717010,308.017944 350.742950,309.242859 350.374329,310.283752 
	C349.674316,312.260559 348.870026,314.200439 348.344727,316.192810 
	C346.995270,321.379120 345.645813,326.565460 344.346802,331.557922 
	C338.869141,332.815582 336.963196,330.233887 335.806732,325.888794 
	C334.385895,320.550415 335.586365,315.760773 337.599670,310.908051 
	C339.946014,305.252563 342.101471,299.517914 344.719818,292.849762 
	C340.545258,293.097137 337.006989,293.203156 333.491394,293.543732 
	C329.841766,293.897339 327.508362,290.999115 326.919586,285.520172 
	C326.471191,281.347626 328.702972,280.839813 332.066315,281.073578 
	C335.214661,281.292358 338.391479,281.070221 341.554871,281.110535 
	C347.317780,281.183960 351.703827,279.380463 354.575989,273.794403 
	C357.348694,268.401794 360.563538,268.603699 363.152191,274.064056 
	C364.562225,277.038330 366.248901,277.846924 369.351715,277.041199 
	C372.885010,276.123688 376.508881,275.482086 380.130188,274.992981 
	C386.167572,274.177490 388.864838,275.948730 391.282013,281.822021 
	C391.326324,281.929718 392.480011,281.580811 393.400757,281.243225 
z"/>
<path fill="#1D1717" opacity="1.000000" stroke="none" 
	d="
M79.818497,306.902283 
	C81.234543,297.250427 77.996544,288.180908 76.587158,278.899963 
	C76.409966,277.733124 77.621300,276.355408 78.646881,275.245087 
	C79.375435,275.445648 79.646408,275.476532 79.917381,275.507385 
	C79.635078,275.304230 79.352776,275.101105 79.070473,274.897949 
	C72.950562,268.007599 73.188919,260.697479 77.241264,252.864502 
	C78.587303,250.262665 78.917694,247.148834 79.845367,244.312561 
	C80.494240,242.328705 80.940811,239.142517 82.222252,238.712616 
	C86.227295,237.369034 90.207535,234.563507 94.944397,237.601715 
	C99.819611,240.728622 105.253036,242.975281 110.217178,245.979004 
	C111.905060,247.000290 113.298927,248.974945 114.140678,250.826096 
	C115.709213,254.275558 116.357208,258.179596 118.145309,261.484894 
	C120.960175,266.688202 128.183151,269.868530 133.454086,268.769226 
	C140.059448,267.391663 141.676147,262.258972 142.248871,256.472565 
	C148.541946,258.755005 148.424973,265.265625 143.021881,273.012817 
	C143.650330,275.803680 144.397583,277.342499 144.258820,278.796722 
	C143.400986,287.786560 142.343765,296.757416 141.617035,306.051544 
	C141.195389,306.571503 140.509491,306.774445 139.456955,306.563110 
	C138.798065,302.700317 138.505814,299.251831 138.186432,295.831543 
	C138.159317,295.859802 138.108688,295.919556 138.429581,295.740601 
	C139.477982,291.056915 137.175156,287.783295 133.938828,285.322937 
	C128.798737,281.415314 123.003242,280.398499 116.511917,281.641296 
	C112.629593,282.384644 108.374710,282.376526 104.489632,281.639526 
	C98.193642,280.445099 92.323135,281.111420 87.557854,285.135529 
	C84.992546,287.301849 82.930374,290.874908 82.172150,294.165985 
	C81.212440,298.331635 81.810303,302.856140 81.736397,307.225891 
	C81.187927,307.131134 80.639465,307.036377 79.818497,306.902283 
M82.533470,252.991226 
	C85.650993,252.683228 88.768517,252.375244 91.886032,252.067261 
	C91.945160,252.502380 92.004280,252.937485 92.063400,253.372604 
	C90.721268,254.042709 89.379128,254.712814 87.482292,255.659882 
	C98.365906,257.358612 101.718689,256.680084 105.495110,252.442459 
	C102.272095,251.512497 98.758629,250.959915 95.668350,249.507141 
	C89.953430,246.820526 85.450256,247.856689 81.868385,252.793671 
	C81.868385,252.793671 81.702835,252.981628 81.702835,252.981628 
	C81.702835,252.981628 81.754784,252.664047 82.533470,252.991226 
M140.432968,275.471191 
	C140.432968,275.471191 140.661896,275.592072 140.661896,275.592072 
	C140.661896,275.592072 140.623260,275.348938 140.432968,275.471191 
z"/>
<path fill="#957FE4" opacity="1.000000" stroke="none" 
	d="
M393.058746,182.059860 
	C399.207703,178.341919 404.794678,179.160294 410.012543,184.330597 
	C404.330780,189.556366 398.241882,194.426056 393.101105,200.147614 
	C389.801880,203.819595 387.551605,208.585999 385.447021,213.146088 
	C381.700043,221.264832 378.420013,229.599106 374.903198,237.941742 
	C373.459320,237.657639 372.148743,237.079193 370.915833,237.213547 
	C366.000031,237.749237 363.558258,234.930054 363.119995,230.757721 
	C362.291504,222.870132 362.088654,214.917160 361.608398,206.992416 
	C361.491547,205.063797 361.307037,203.139267 361.153656,201.212860 
	C360.644775,200.907913 360.135864,200.602966 359.626984,200.298019 
	C357.343689,203.041977 354.441437,205.478699 352.897278,208.589539 
	C348.845032,216.753235 345.494476,225.262772 341.588715,233.503876 
	C340.873718,235.012512 338.856415,236.831436 337.445984,236.826645 
	C335.985443,236.821686 334.128265,235.040527 333.149536,233.567795 
	C329.976257,228.792740 329.828979,223.805313 332.214966,218.439941 
	C337.596375,206.339005 345.827667,196.407562 355.246735,187.364288 
	C356.076477,186.567688 358.357391,186.356812 359.441467,186.905960 
	C365.112305,189.778580 369.717834,193.675537 370.634674,200.566772 
	C370.895264,202.525253 371.525269,204.434586 372.081970,206.769379 
	C375.191071,202.895584 378.046997,199.337265 381.335144,195.359650 
	C385.531189,190.646881 389.294983,186.353363 393.058746,182.059860 
z"/>
<path fill="#947EE2" opacity="1.000000" stroke="none" 
	d="
M284.321716,208.291245 
	C292.722473,198.388321 300.603027,188.486130 309.197235,179.247803 
	C313.989166,174.096710 321.553070,176.061203 323.292542,182.562592 
	C324.425934,186.798721 324.938171,191.454147 324.502289,195.798691 
	C323.819397,202.605087 320.515411,209.362808 326.814392,216.258179 
	C319.219177,216.746246 319.310181,221.765274 318.540985,226.166168 
	C317.579376,231.667511 316.694672,237.182281 315.784119,242.647293 
	C307.513977,241.833496 305.340240,238.151138 307.803375,230.462830 
	C308.711029,227.629639 309.156219,224.648270 310.127106,220.336533 
	C296.794006,223.741623 285.968414,227.545242 283.557312,241.492523 
	C274.032501,239.649063 270.196960,233.040894 274.034424,225.154099 
	C276.851593,219.364120 280.707001,214.079330 284.321716,208.291245 
M298.750275,212.925262 
	C301.005646,211.912933 303.203674,210.737442 305.527710,209.920441 
	C311.317383,207.885132 316.136017,201.712692 316.241302,195.673843 
	C316.266998,194.200943 315.696716,192.717636 315.204010,190.258789 
	C307.571960,197.284378 302.343658,204.657013 297.957794,212.687836 
	C297.906372,212.781982 298.062195,212.989288 297.777588,212.942429 
	C297.863678,212.970062 297.949768,212.997696 298.750275,212.925262 
z"/>
<path fill="#947EE2" opacity="1.000000" stroke="none" 
	d="
M273.961487,283.028992 
	C277.249054,281.369293 280.229645,279.893494 283.286255,278.596893 
	C285.956482,277.464172 287.515228,278.067474 288.148895,281.323273 
	C289.603485,288.796906 288.575226,290.300323 281.048706,293.328491 
	C277.514526,294.750458 274.617859,297.688019 271.181000,299.447968 
	C269.269135,300.426971 266.736023,300.115204 264.667511,300.882690 
	C260.777191,302.326080 257.018036,304.124054 253.212036,305.792236 
	C252.774673,305.983917 252.386398,306.287628 251.407593,306.887115 
	C261.632812,317.366241 271.971191,327.203796 285.415802,332.641327 
	C281.748169,334.623108 277.353333,334.388855 271.281372,330.888580 
	C261.818604,325.433685 252.562866,319.620422 243.132278,314.108093 
	C241.629974,313.229919 238.785324,312.187622 238.088608,312.843567 
	C235.808594,314.990082 232.677734,316.320221 232.532578,320.741760 
	C232.376556,325.493683 230.178818,330.178589 228.875854,334.878723 
	C222.184875,332.917389 219.859970,328.310150 221.432480,322.248596 
	C225.200348,307.724426 233.166397,295.224945 240.315796,282.326050 
	C242.170212,278.980347 244.151459,275.701508 246.168793,272.450531 
	C248.193970,269.186859 250.375122,269.073669 252.566772,272.367096 
	C255.178818,276.292297 256.405151,280.455963 253.471283,284.932098 
	C251.671738,287.677643 250.132523,290.593811 249.186447,294.400665 
	C257.353485,290.697357 265.520538,286.994080 273.961487,283.028992 
z"/>
<path fill="#947FE3" opacity="1.000000" stroke="none" 
	d="
M479.449127,313.152313 
	C470.909271,324.103699 460.498383,332.061340 445.908997,331.395752 
	C438.245239,331.046112 432.088226,324.465088 432.444336,318.438843 
	C432.676697,314.506592 432.995697,310.350342 434.437775,306.761292 
	C438.897278,295.662689 443.854156,284.761017 448.782837,273.857391 
	C449.456879,272.366211 450.999542,270.393341 452.264679,270.298065 
	C453.448029,270.208954 455.065216,272.129883 456.024597,273.494385 
	C459.422546,278.326935 460.718872,283.183838 456.413452,288.453491 
	C454.679626,290.575653 454.035675,293.557648 452.661011,296.017151 
	C452.007080,297.187134 450.803314,298.049805 450.419952,298.452118 
	C447.935913,304.563354 445.683960,310.103699 443.171448,316.285004 
	C452.546509,316.545898 459.542114,313.852600 464.658081,308.067017 
	C469.342712,302.769226 472.763184,296.374664 477.028107,290.678589 
	C481.140991,285.185516 482.841522,278.630646 485.449799,272.177979 
	C489.544434,273.662415 492.436371,275.333313 492.232666,280.207428 
	C492.136749,282.502472 493.994843,284.931976 493.728943,287.152222 
	C493.466583,289.342743 492.067902,292.621216 490.414795,293.175110 
	C486.568329,294.463959 487.010529,297.567474 485.948029,300.126831 
	C485.739746,300.628479 484.919250,300.875946 484.022095,301.798523 
	C483.289917,303.965515 478.779968,305.528076 483.608643,307.195679 
	C483.149353,307.955200 482.690094,308.714752 481.705566,309.664886 
	C479.301910,310.421326 477.423492,310.987152 475.545074,311.552948 
	C475.645721,312.007996 475.746368,312.463074 475.847015,312.918121 
	C477.047729,312.996185 478.248413,313.074249 479.449127,313.152313 
z"/>
<path fill="#EE2B2B" opacity="1.000000" stroke="none" 
	d="
M81.783661,307.660736 
	C81.810303,302.856140 81.212440,298.331635 82.172150,294.165985 
	C82.930374,290.874908 84.992546,287.301849 87.557854,285.135529 
	C92.323135,281.111420 98.193642,280.445099 104.489632,281.639526 
	C108.374710,282.376526 112.629593,282.384644 116.511917,281.641296 
	C123.003242,280.398499 128.798737,281.415314 133.938828,285.322937 
	C137.175156,287.783295 139.477982,291.056915 138.350739,295.578003 
	C137.751694,295.491669 137.552353,295.389038 137.353012,295.286407 
	C137.360703,295.433380 137.341339,295.699219 137.380417,295.708130 
	C137.651337,295.769775 137.934387,295.777985 138.213562,295.803314 
	C138.505814,299.251831 138.798065,302.700317 139.184784,306.578339 
	C140.767242,313.043396 142.255219,319.078949 143.689606,324.897064 
	C138.540009,323.917023 135.353653,319.356415 132.905533,313.900909 
	C131.988968,314.360504 131.092270,314.810120 130.095062,315.626587 
	C129.994553,315.993469 130.008713,316.061523 130.298645,315.747253 
	C130.043060,314.938385 129.497543,314.443756 128.973816,313.973785 
	C128.995575,313.998413 129.006271,314.063263 129.335403,313.753723 
	C128.776947,307.746338 127.746910,302.065643 127.056480,296.343994 
	C126.657898,293.040924 125.337074,291.002563 121.858719,290.981445 
	C114.244011,290.935211 106.615646,290.734894 99.023880,291.156372 
	C97.320061,291.250946 94.632950,293.412079 94.306801,295.011078 
	C93.099007,300.932343 92.689384,307.016449 91.978867,313.013184 
	C91.977875,312.987000 92.006798,312.943298 92.006798,312.943298 
	C90.939957,314.036407 89.873116,315.129547 88.854706,316.064301 
	C88.903137,315.121613 88.903137,314.337280 88.903137,312.306671 
	C88.069870,314.129303 87.753616,314.821075 87.437363,315.512817 
	C84.816574,319.909851 82.017525,324.087830 77.296425,324.797974 
	C78.794052,319.281647 80.312492,313.688629 81.783661,307.660736 
z"/>
<path fill="#957FE3" opacity="1.000000" stroke="none" 
	d="
M436.770935,179.570404 
	C438.663269,184.633224 438.928650,189.159134 435.573364,193.437988 
	C431.643982,198.449036 427.175018,203.229233 424.275391,208.804062 
	C421.072998,214.960861 419.210541,221.850143 417.105530,228.527878 
	C415.972107,232.123474 415.552582,235.944122 414.798828,239.724167 
	C404.701172,234.845612 402.190948,230.835068 405.330780,221.907791 
	C408.561218,212.722794 413.092529,203.960800 417.492096,195.234283 
	C420.178802,189.905304 423.720337,185.010330 426.824158,179.887833 
	C430.624512,173.615906 432.248962,173.491562 436.770935,179.570404 
z"/>
<path fill="#947FE3" opacity="1.000000" stroke="none" 
	d="
M304.158813,322.006683 
	C303.073547,325.932648 301.988281,329.858643 300.896698,333.807495 
	C294.532410,332.727478 289.789520,327.572815 290.843231,321.455322 
	C291.818970,315.790436 293.235077,309.930969 295.845093,304.873352 
	C301.556763,293.805511 308.072144,283.146057 314.483246,272.454102 
	C315.231659,271.205963 318.342438,269.801453 318.734955,270.174988 
	C320.854828,272.192474 323.461060,274.538513 324.011841,277.166840 
	C324.823090,281.038025 324.702148,285.188843 321.526642,288.774536 
	C317.537384,293.279053 314.159729,298.325256 310.038208,303.616119 
	C307.541473,308.751312 305.403290,313.361908 303.599854,318.099915 
	C303.190460,319.175415 303.941803,320.692749 304.158813,322.006683 
z"/>
<path fill="#F12B2B" opacity="1.000000" stroke="none" 
	d="
M129.971420,315.967529 
	C129.491348,317.582672 129.513123,319.647186 128.498169,320.794708 
	C122.805916,327.230438 116.863663,333.445068 110.479202,340.301727 
	C104.051369,333.364655 97.651337,326.780518 91.766121,319.764587 
	C90.863602,318.688660 92.334869,315.621490 92.357529,313.209290 
	C92.006798,312.943298 91.977875,312.987000 92.337135,313.269958 
	C94.802597,313.812683 96.908295,314.076660 99.015091,314.331512 
	C105.846107,315.157745 109.288918,310.957062 106.764244,304.579041 
	C105.892555,302.376892 104.224533,300.489990 102.915672,298.451904 
	C108.056717,298.451904 113.006447,298.451904 118.483261,298.451904 
	C117.360580,299.696716 116.632286,300.385345 116.043640,301.177765 
	C113.637749,304.416504 111.996117,308.033417 114.327660,311.790344 
	C116.556915,315.382477 120.331543,314.528809 123.857430,314.037201 
	C125.539795,313.802612 127.287926,314.039764 129.006271,314.063263 
	C129.006271,314.063263 128.995575,313.998413 128.863144,314.313995 
	C129.156708,315.106903 129.582718,315.584198 130.008713,316.061523 
	C130.008713,316.061523 129.994553,315.993469 129.971420,315.967529 
z"/>
<path fill="#4B426D" opacity="1.000000" stroke="none" 
	d="
M392.753815,181.939789 
	C389.294983,186.353363 385.531189,190.646881 381.429871,195.020508 
	C384.110779,190.653275 387.093323,186.180313 390.215881,181.807327 
	C390.465302,181.458038 391.681793,181.799347 392.753815,181.939789 
z"/>
<path fill="#6D5EA3" opacity="1.000000" stroke="none" 
	d="
M304.450378,321.827179 
	C303.941803,320.692749 303.190460,319.175415 303.599854,318.099915 
	C305.403290,313.361908 307.541473,308.751312 309.779663,303.942688 
	C310.017365,305.274017 310.436035,306.897339 309.977112,308.215027 
	C308.397614,312.750244 306.511322,317.178589 304.450378,321.827179 
z"/>
<path fill="#8875D1" opacity="1.000000" stroke="none" 
	d="
M479.692719,313.000732 
	C478.248413,313.074249 477.047729,312.996185 475.847015,312.918121 
	C475.746368,312.463074 475.645721,312.007996 475.545074,311.552948 
	C477.423492,310.987152 479.301910,310.421326 481.481354,309.912872 
	C481.167023,310.929901 480.551666,311.889526 479.692719,313.000732 
z"/>
<path fill="#8875D1" opacity="1.000000" stroke="none" 
	d="
M483.835358,306.953857 
	C478.779968,305.528076 483.289917,303.965515 483.871124,302.110901 
	C484.073456,303.480927 484.067749,305.096466 483.835358,306.953857 
z"/>
<path fill="#1E1717" opacity="1.000000" stroke="none" 
	d="
M105.338364,240.698471 
	C102.572578,239.157516 100.139679,237.780777 97.706779,236.404037 
	C97.722832,236.016251 97.738892,235.628448 97.754944,235.240662 
	C100.042412,235.032364 102.361603,234.472443 104.611969,234.675430 
	C115.482704,235.656021 126.339798,236.797379 137.190170,237.987244 
	C139.792831,238.272659 141.032288,239.661652 141.105515,242.646973 
	C141.188629,246.035950 142.214355,249.401794 142.962082,253.499969 
	C129.666061,250.964218 117.445457,246.605988 105.338364,240.698471 
z"/>
<path fill="#231717" opacity="1.000000" stroke="none" 
	d="
M99.060806,201.307022 
	C102.668198,194.940430 109.839302,192.303375 116.779427,195.171402 
	C121.840431,197.262878 122.210808,201.819778 121.462639,207.097687 
	C120.409065,207.485306 119.700142,207.364655 119.040558,207.114136 
	C117.137962,206.391556 115.255257,205.616623 113.364738,204.862244 
	C113.022285,206.124832 112.052887,207.655716 112.456558,208.599030 
	C113.604401,211.281372 115.797600,212.055099 118.539589,210.530807 
	C118.860260,210.352539 119.365685,210.506607 120.033737,210.506607 
	C120.033737,211.825439 120.033737,212.955338 120.033737,214.085236 
	C113.627617,216.566162 107.229279,216.197205 100.475250,214.108002 
	C100.114662,214.183197 100.169548,214.252060 100.169548,214.252060 
	C99.848480,210.165405 99.527412,206.078766 99.127319,201.556274 
	C99.048286,201.120438 99.060806,201.307022 99.060806,201.307022 
M104.230080,204.812271 
	C103.687271,206.572235 103.030693,208.315170 102.760796,210.116043 
	C102.730637,210.317291 105.450317,211.507584 105.936539,211.098969 
	C107.286842,209.964203 108.131569,208.227844 109.176033,206.729156 
	C107.766258,206.019226 106.356491,205.309311 104.230080,204.812271 
z"/>
<path fill="#201717" opacity="1.000000" stroke="none" 
	d="
M63.049416,273.279663 
	C67.489853,272.781921 71.138931,275.680634 71.923248,279.897797 
	C72.892517,285.109528 70.887794,290.967804 67.316116,291.308655 
	C65.276527,291.503296 62.245922,289.845947 60.993053,288.078583 
	C57.816132,283.597076 58.800507,278.127808 63.049416,273.279663 
z"/>
<path fill="#1F1717" opacity="1.000000" stroke="none" 
	d="
M155.271545,272.634094 
	C159.926712,273.329681 161.556046,276.767487 161.302948,280.234100 
	C161.044708,283.771027 159.873627,287.764099 157.744980,290.502472 
	C155.359253,293.571625 152.279404,291.605377 150.386505,288.825958 
	C147.547058,284.656677 148.576340,278.261719 152.410583,275.046295 
	C153.288406,274.310150 154.089951,273.483002 155.271545,272.634094 
z"/>
<path fill="#241717" opacity="1.000000" stroke="none" 
	d="
M100.084328,214.151276 
	C97.216553,217.057343 94.488350,220.117584 91.450844,222.831604 
	C90.832413,223.384155 88.414719,223.081680 87.930374,222.394882 
	C86.765373,220.742844 85.948303,218.675690 85.645309,216.676804 
	C85.538078,215.969345 87.203789,214.471375 88.275917,214.205872 
	C91.355362,213.443314 94.536835,213.050476 97.699226,212.704330 
	C98.265518,212.642334 98.932167,213.497070 99.861008,214.090302 
	C100.169548,214.252060 100.114662,214.183197 100.084328,214.151276 
z"/>
<path fill="#241717" opacity="1.000000" stroke="none" 
	d="
M122.139122,212.360886 
	C125.593826,212.931168 129.095428,213.315903 132.478195,214.170792 
	C133.687592,214.476425 135.646973,216.229355 135.479874,216.787918 
	C134.823120,218.983154 133.665100,221.138519 132.206619,222.907501 
	C131.835129,223.358078 129.405090,222.685837 128.385895,221.914810 
	C125.848854,219.995544 123.579590,217.722305 121.291977,215.099655 
	C121.633804,213.859039 121.886467,213.109970 122.139122,212.360886 
z"/>
<path fill="#271818" opacity="1.000000" stroke="none" 
	d="
M98.763252,201.033997 
	C99.060806,201.307022 99.048286,201.120438 99.066513,201.073822 
	C98.523933,201.981277 97.963112,202.935364 97.783577,203.240799 
	C94.451553,203.077042 91.583725,203.169022 88.813896,202.692001 
	C87.607971,202.484299 85.559532,200.862930 85.690491,200.306473 
	C86.214836,198.078491 87.197113,195.827927 88.577919,194.019272 
	C88.944191,193.539520 91.647804,194.206467 92.733093,195.049057 
	C94.847610,196.690720 96.576881,198.828598 98.763252,201.033997 
z"/>
<path fill="#281818" opacity="1.000000" stroke="none" 
	d="
M127.599937,202.471375 
	C126.059204,203.038589 124.867271,203.454758 122.255524,204.366669 
	C123.312218,201.935760 123.676491,200.527206 124.470039,199.428757 
	C125.303947,198.274429 126.527039,197.392029 127.620216,196.436752 
	C128.767181,195.434494 129.948273,193.761871 131.139816,193.739594 
	C132.132050,193.721039 133.459961,195.511093 134.121155,196.771774 
	C136.761383,201.805862 135.762146,202.673157 127.599937,202.471375 
z"/>
<path fill="#EB2B2B" opacity="1.000000" stroke="none" 
	d="
M122.109581,211.855423 
	C121.886467,213.109970 121.633804,213.859039 121.136337,214.788788 
	C120.671143,214.803543 120.470024,214.616898 120.160950,214.247360 
	C120.033737,212.955338 120.033737,211.825439 120.033737,210.506607 
	C119.365685,210.506607 118.860260,210.352539 118.539589,210.530807 
	C115.797600,212.055099 113.604401,211.281372 112.456558,208.599030 
	C112.052887,207.655716 113.022285,206.124832 113.364738,204.862244 
	C115.255257,205.616623 117.137962,206.391556 119.040558,207.114136 
	C119.700142,207.364655 120.409065,207.485306 121.418556,207.482788 
	C121.854446,208.650177 121.967239,210.000076 122.109581,211.855423 
z"/>
<path fill="#161616" opacity="1.000000" stroke="none" 
	d="
M156.197968,203.869843 
	C155.905075,203.586456 155.951614,203.265961 155.998169,202.945480 
	C156.274948,203.004379 156.551743,203.063293 156.828522,203.122192 
	C156.731476,203.359039 156.634445,203.595886 156.197968,203.869843 
z"/>
<path fill="#E32A2A" opacity="1.000000" stroke="none" 
	d="
M81.671204,252.760361 
	C85.450256,247.856689 89.953430,246.820526 95.668350,249.507141 
	C98.758629,250.959915 102.272095,251.512497 105.495110,252.442459 
	C101.718689,256.680084 98.365906,257.358612 87.482292,255.659882 
	C89.379128,254.712814 90.721268,254.042709 92.063400,253.372604 
	C92.004280,252.937485 91.945160,252.502380 91.886032,252.067261 
	C88.768517,252.375244 85.650993,252.683228 82.140976,252.867126 
	C81.748489,252.743011 81.671204,252.760361 81.671204,252.760361 
z"/>
<path fill="#F42C2C" opacity="1.000000" stroke="none" 
	d="
M79.051697,274.926056 
	C79.352776,275.101105 79.635078,275.304230 79.917381,275.507385 
	C79.646408,275.476532 79.375435,275.445648 79.048920,275.211853 
	C78.993378,275.008972 79.032913,274.954163 79.051697,274.926056 
z"/>
<path fill="#F42C2C" opacity="1.000000" stroke="none" 
	d="
M140.528107,275.410065 
	C140.623260,275.348938 140.661896,275.592072 140.661896,275.592072 
	C140.661896,275.592072 140.432968,275.471191 140.528107,275.410065 
z"/>
<path fill="#E32A2A" opacity="1.000000" stroke="none" 
	d="
M81.751633,252.703522 
	C81.754784,252.664047 81.702835,252.981628 81.702835,252.981628 
	C81.702835,252.981628 81.868385,252.793671 81.769791,252.777008 
	C81.671204,252.760361 81.748489,252.743011 81.751633,252.703522 
z"/>
<path fill="#1D1C22" opacity="1.000000" stroke="none" 
	d="
M298.121277,213.143753 
	C298.062195,212.989288 297.906372,212.781982 297.957794,212.687836 
	C302.343658,204.657013 307.571960,197.284378 315.204010,190.258789 
	C315.696716,192.717636 316.266998,194.200943 316.241302,195.673843 
	C316.136017,201.712692 311.317383,207.885132 305.527710,209.920441 
	C303.203674,210.737442 301.005646,211.912933 298.414368,213.004944 
	C298.078461,213.084625 298.121277,213.143753 298.121277,213.143753 
z"/>
<path fill="#1D1C22" opacity="1.000000" stroke="none" 
	d="
M298.057159,213.054993 
	C297.949768,212.997696 297.863678,212.970062 297.949432,213.043091 
	C298.121277,213.143753 298.078461,213.084625 298.057159,213.054993 
z"/>
<path fill="#161616" opacity="1.000000" stroke="none" 
	d="
M129.335403,313.753723 
	C127.287926,314.039764 125.539795,313.802612 123.857430,314.037201 
	C120.331543,314.528809 116.556915,315.382477 114.327660,311.790344 
	C111.996117,308.033417 113.637749,304.416504 116.043640,301.177765 
	C116.632286,300.385345 117.360580,299.696716 118.483261,298.451904 
	C113.006447,298.451904 108.056717,298.451904 102.915672,298.451904 
	C104.224533,300.489990 105.892555,302.376892 106.764244,304.579041 
	C109.288918,310.957062 105.846107,315.157745 99.015091,314.331512 
	C96.908295,314.076660 94.802597,313.812683 92.338120,313.296143 
	C92.689384,307.016449 93.099007,300.932343 94.306801,295.011078 
	C94.632950,293.412079 97.320061,291.250946 99.023880,291.156372 
	C106.615646,290.734894 114.244011,290.935211 121.858719,290.981445 
	C125.337074,291.002563 126.657898,293.040924 127.056480,296.343994 
	C127.746910,302.065643 128.776947,307.746338 129.335403,313.753723 
z"/>
<path fill="#161616" opacity="1.000000" stroke="none" 
	d="
M87.730103,315.755127 
	C87.753616,314.821075 88.069870,314.129303 88.903137,312.306671 
	C88.903137,314.337280 88.903137,315.121613 88.760254,316.188416 
	C88.419197,316.313049 88.221016,316.155212 87.730103,315.755127 
z"/>
<path fill="#161616" opacity="1.000000" stroke="none" 
	d="
M130.298645,315.747253 
	C129.582718,315.584198 129.156708,315.106903 128.841370,314.289368 
	C129.497543,314.443756 130.043060,314.938385 130.298645,315.747253 
z"/>
<path fill="#1D1717" opacity="1.000000" stroke="none" 
	d="
M138.186432,295.831543 
	C137.934387,295.777985 137.651337,295.769775 137.380417,295.708130 
	C137.341339,295.699219 137.360703,295.433380 137.353012,295.286407 
	C137.552353,295.389038 137.751694,295.491669 138.029846,295.756927 
	C138.108688,295.919556 138.159317,295.859802 138.186432,295.831543 
z"/>
<path fill="#E62A2A" opacity="1.000000" stroke="none" 
	d="
M104.588394,204.705826 
	C106.356491,205.309311 107.766258,206.019226 109.176041,206.729156 
	C108.131569,208.227844 107.286842,209.964203 105.936539,211.098969 
	C105.450317,211.507584 102.730637,210.317291 102.760796,210.116043 
	C103.030693,208.315170 103.687271,206.572235 104.588394,204.705826 
z"/>
</svg>